<?xml version="1.0" encoding="UTF-8"?>
<svg version="1.1" xmlns="http://www.w3.org/2000/svg" width="612" height="108">
<path d="M0 0 C1.27472168 -0.00637985 2.54944336 -0.0127597 3.86279297 -0.01933289 C5.26009076 -0.02086133 6.65738906 -0.02197541 8.0546875 -0.02270508 C9.48193394 -0.02591696 10.90918004 -0.02928097 12.33642578 -0.03279114 C15.32910933 -0.03878284 18.321764 -0.04063095 21.31445312 -0.04003906 C25.1548307 -0.03993733 28.99502386 -0.05360114 32.83535767 -0.07081127 C35.78296769 -0.08191185 38.73053283 -0.08395889 41.67816162 -0.08342934 C43.09438718 -0.08461195 44.5106138 -0.08904939 45.92681885 -0.0967617 C47.90431349 -0.10652387 49.88186202 -0.10242912 51.859375 -0.09765625 C52.98585449 -0.09908127 54.11233398 -0.10050629 55.27294922 -0.10197449 C57.9296875 0.14526367 57.9296875 0.14526367 59.9296875 2.14526367 C60.9196875 2.64026367 60.9196875 2.64026367 61.9296875 3.14526367 C66.94969967 5.65526976 70.97894386 11.19452003 74.9296875 15.14526367 C75.57679688 15.7356543 76.22390625 16.32604492 76.890625 16.93432617 C86.68129635 27.55026484 87.35967953 43.55090032 86.9296875 57.14526367 C86.68810815 60.16917066 86.33748767 63.13773743 85.9296875 66.14526367 C85.2696875 66.14526367 84.6096875 66.14526367 83.9296875 66.14526367 C84.2596875 67.13526367 84.5896875 68.12526367 84.9296875 69.14526367 C83.78515625 71.99291992 83.78515625 71.99291992 82.1171875 75.20776367 C81.30314453 76.80297852 81.30314453 76.80297852 80.47265625 78.43041992 C78.82471726 81.32995815 77.00047187 83.07639239 74.6171875 85.39526367 C72.73143664 87.3248692 71.04886179 89.18374187 69.3671875 91.27026367 C67.28133708 93.7304975 65.55115576 95.34300425 62.9296875 97.14526367 C61.7540625 98.13526367 61.7540625 98.13526367 60.5546875 99.14526367 C49.4239135 107.62585339 32.54615865 109.21987614 18.9296875 108.14526367 C13.18663786 107.14602684 7.55868182 105.64432205 1.9296875 104.14526367 C0.59696985 103.80947722 -0.73596604 103.47451799 -2.0703125 103.14526367 C-2.0703125 102.48526367 -2.0703125 101.82526367 -2.0703125 101.14526367 C-3.1221875 100.91838867 -4.1740625 100.69151367 -5.2578125 100.45776367 C-9.27571843 99.3201638 -11.22855027 97.205623 -14.0703125 94.14526367 C-15.1221875 93.46463867 -16.1740625 92.78401367 -17.2578125 92.08276367 C-19.99580546 90.19659074 -20.97536855 89.21110673 -22.0703125 86.14526367 C-22.7303125 86.14526367 -23.3903125 86.14526367 -24.0703125 86.14526367 C-26.01264063 83.66119777 -27.50216861 80.87656533 -29.0703125 78.14526367 C-29.44800781 77.52135742 -29.82570313 76.89745117 -30.21484375 76.25463867 C-36.78017353 64.55015562 -36.70468018 47.07761412 -34.0703125 34.14526367 C-33.13584715 32.11381726 -32.13806474 30.1099278 -31.0703125 28.14526367 C-30.5753125 26.56745117 -30.5753125 26.56745117 -30.0703125 24.95776367 C-29.06431987 22.12840939 -28.27393403 21.07343251 -26.0703125 19.14526367 C-25.4103125 18.15526367 -24.7503125 17.16526367 -24.0703125 16.14526367 C-21.39335006 12.54521074 -18.63228439 9.86361064 -15.0703125 7.14526367 C-14.4103125 6.48526367 -13.7503125 5.82526367 -13.0703125 5.14526367 C-8.29535518 1.20592388 -6.19332678 0.02095707 0 0 Z " fill="#F35655" transform="translate(406.0703125,-0.145263671875)"/>
<path d="M0 0 C1.04368744 0.00444122 2.08737488 0.00888245 3.16268921 0.01345825 C4.93429916 0.01368484 4.93429916 0.01368484 6.74169922 0.01391602 C8.02192963 0.02423859 9.30216003 0.03456116 10.6211853 0.04519653 C12.58129044 0.04944138 12.58129044 0.04944138 14.58099365 0.05377197 C18.05644361 0.06141127 21.53172663 0.08106213 25.0071106 0.10317993 C28.55292502 0.12363208 32.0987664 0.13277233 35.6446228 0.14285278 C42.60302475 0.16430787 49.56131576 0.1984473 56.5196228 0.24050903 C56.5196228 1.23050903 56.5196228 2.22050903 56.5196228 3.24050903 C57.1796228 3.57050903 57.8396228 3.90050903 58.5196228 4.24050903 C58.5196228 29.65050903 58.5196228 55.06050903 58.5196228 81.24050903 C55.42004269 82.2737024 53.24474206 82.37937808 49.99423218 82.40164185 C48.86295898 82.41124939 47.73168579 82.42085693 46.56613159 82.43075562 C44.73326599 82.43713043 44.73326599 82.43713043 42.8633728 82.44363403 C40.98265076 82.45218414 40.98265076 82.45218414 39.06393433 82.46090698 C36.41094328 82.47035866 33.75806542 82.47725511 31.10507202 82.48074341 C27.70527733 82.48623729 24.30588128 82.51028982 20.90621185 82.53871536 C17.66279559 82.56180682 14.41935979 82.56378834 11.1758728 82.56863403 C9.9539624 82.58098083 8.732052 82.59332764 7.47311401 82.60604858 C5.77620422 82.60154694 5.77620422 82.60154694 4.04501343 82.59695435 C2.54968079 82.60242279 2.54968079 82.60242279 1.0241394 82.60800171 C-1.4803772 82.24050903 -1.4803772 82.24050903 -3.30244446 81.17930603 C-5.10641494 78.21009357 -4.8891843 75.23426591 -4.85269165 71.86331177 C-4.85634232 71.11506134 -4.85999298 70.36681091 -4.86375427 69.59588623 C-4.87186279 67.12172781 -4.85824888 64.64822365 -4.84365845 62.17410278 C-4.84313993 60.45682272 -4.84365731 58.73954205 -4.84516907 57.02226257 C-4.84507933 53.42345315 -4.83464676 49.8248677 -4.81655884 46.22610474 C-4.79385451 41.60663944 -4.7933305 36.98750101 -4.80007648 32.36799526 C-4.80341302 28.82245463 -4.79679264 25.27698892 -4.78694725 21.73146248 C-4.78309079 20.02776544 -4.78194888 18.32406008 -4.7835331 16.62035942 C-4.78390275 14.24284771 -4.7713127 11.86575997 -4.7550354 9.48831177 C-4.75751282 8.78020859 -4.75999023 8.07210541 -4.76254272 7.34254456 C-4.68703544 0.45447699 -4.68703544 0.45447699 0 0 Z M-2.4803772 78.24050903 C-1.4803772 80.24050903 -1.4803772 80.24050903 -1.4803772 80.24050903 Z " fill="#010E3C" transform="translate(46.480377197265625,4.759490966796875)"/>
<path d="M0 0 C42.94339623 0 42.94339623 0 48.375 2.9375 C49.02210938 3.27652344 49.66921875 3.61554687 50.3359375 3.96484375 C52 5 52 5 54 7 C55.4540625 8.175625 55.4540625 8.175625 56.9375 9.375 C59.37139139 11.39047422 61.2013832 13.38383012 63 16 C63.680625 16.78375 64.36125 17.5675 65.0625 18.375 C69.46490828 24.33955316 70.12446633 31.6088142 70.1328125 38.84375 C70.13410156 39.92527344 70.13539063 41.00679687 70.13671875 42.12109375 C70.13285156 43.23613281 70.12898438 44.35117187 70.125 45.5 C70.12886719 46.61503906 70.13273437 47.73007812 70.13671875 48.87890625 C70.13542969 49.96042969 70.13414062 51.04195312 70.1328125 52.15625 C70.13168457 53.13400391 70.13055664 54.11175781 70.12939453 55.11914062 C69.99341226 58.14667036 69.55552876 61.02320438 69 64 C68.34 64 67.68 64 67 64 C67.33 64.99 67.66 65.98 68 67 C66.97746933 69.59565478 65.98953324 71.01046676 64 73 C63.3503125 73.8971875 63.3503125 73.8971875 62.6875 74.8125 C60.6579385 77.44341305 58.3773706 79.68061405 56 82 C55.401875 82.70125 54.80375 83.4025 54.1875 84.125 C41.07803164 95.36168716 10.14711992 90 0 90 C0 60.3 0 30.6 0 0 Z M21 16 C21 35.14 21 54.28 21 74 C32.4715658 74.68516016 32.4715658 74.68516016 37 73 C37 72.34 37 71.68 37 71 C39.02888958 69.98555521 41.00415425 68.99841161 43.125 68.1875 C45.71099412 66.54970373 46.20280025 64.89890819 47 62 C46.67 61.34 46.34 60.68 46 60 C46.66 60 47.32 60 48 60 C49.36399153 55.25222102 49.18412399 50.59284234 49.1875 45.6875 C49.20586914 44.30014648 49.20586914 44.30014648 49.22460938 42.88476562 C49.23605172 37.51830624 48.77047586 33.07349801 47 28 C46.34 28 45.68 28 45 28 C45 26.68 45 25.36 45 24 C43.56012465 22.25540339 43.56012465 22.25540339 41.625 20.8125 C40.99851562 20.30332031 40.37203125 19.79414063 39.7265625 19.26953125 C33.59451804 14.76067503 31.42900718 16.69526715 21 16 Z " fill="#010E3D" transform="translate(154,12)"/>
<path d="M0 0 C6.27 0 12.54 0 19 0 C19.33 11.22 19.66 22.44 20 34 C22.97 31.525 22.97 31.525 26 29 C31.40827138 25.46915616 39.07604684 26.23196646 45.1953125 27.4296875 C49.95712351 29.15931392 53.47212747 32.7142391 56 37 C59.00021947 43.88152156 59.40520472 50.16522585 59.29296875 57.59765625 C59.28872391 58.67252792 59.28447906 59.7473996 59.28010559 60.85484314 C59.26343339 64.25765998 59.22580223 67.65986488 59.1875 71.0625 C59.17243837 73.38215285 59.15875256 75.70181507 59.14648438 78.02148438 C59.11356737 83.68122213 59.06186451 89.34050764 59 95 C52.4 95 45.8 95 39 95 C38.9906543 93.56688477 38.98130859 92.13376953 38.97167969 90.65722656 C38.9318177 85.3418058 38.86606883 80.02696614 38.79248047 74.71191406 C38.76424896 72.41120873 38.74304534 70.11040601 38.72900391 67.80957031 C38.70760514 64.50274721 38.66096892 61.19709774 38.609375 57.890625 C38.60814636 56.86132874 38.60691772 55.83203247 38.60565186 54.77154541 C38.57213488 49.19617948 38.57213488 49.19617948 36.11425781 44.3503418 C33.55018911 42.71271316 32.02835703 42.49325403 29 42.5625 C28.154375 42.56378906 27.30875 42.56507812 26.4375 42.56640625 C23.4707536 43.09414479 22.18856998 43.94192007 20 46 C19.38610917 48.22480748 19.38610917 48.22480748 19.45410156 50.74682617 C19.42452362 52.18798042 19.42452362 52.18798042 19.39434814 53.6582489 C19.39250519 55.20993523 19.39250519 55.20993523 19.390625 56.79296875 C19.37408875 57.85413406 19.35755249 58.91529938 19.34051514 60.00862122 C19.29188717 63.40163881 19.27063083 66.79420776 19.25 70.1875 C19.22185279 72.48635088 19.19192713 74.78518072 19.16015625 77.08398438 C19.08612387 82.72261934 19.03663942 88.36100306 19 94 C12.73 94 6.46 94 0 94 C0 62.98 0 31.96 0 0 Z " fill="#FEFCFC" transform="translate(402,6)"/>
<path d="M0 0 C1.21139648 -0.00483398 1.21139648 -0.00483398 2.44726562 -0.00976562 C15.35464304 0.10464304 15.35464304 0.10464304 19.5625 4.3125 C20.51125 5.075625 21.46 5.83875 22.4375 6.625 C26.13469995 9.68942734 29.02179617 12.69038852 30.5625 17.3125 C30.2325 17.9725 29.9025 18.6325 29.5625 19.3125 C30.2225 19.6425 30.8825 19.9725 31.5625 20.3125 C33.01192251 27.70455482 32.5625 34.64703133 32.5625 42.3125 C18.7025 41.9825 4.8425 41.6525 -9.4375 41.3125 C-9.4375 41.9725 -9.4375 42.6325 -9.4375 43.3125 C-8.7775 43.3125 -8.1175 43.3125 -7.4375 43.3125 C-7.210625 43.869375 -6.98375 44.42625 -6.75 45 C-5.06199964 47.97409588 -2.97073483 50.03258865 -0.4375 52.3125 C0.2225 52.3125 0.8825 52.3125 1.5625 52.3125 C1.5625 52.9725 1.5625 53.6325 1.5625 54.3125 C5.1925 53.9825 8.8225 53.6525 12.5625 53.3125 C12.5625 52.6525 12.5625 51.9925 12.5625 51.3125 C20.64392117 47.65298853 20.64392117 47.65298853 24.5625 49 C28.02138866 51.26989568 29.28593735 54.48281206 30.5625 58.3125 C26.72276842 64.07209737 22.25640664 67.57208427 15.5625 69.3125 C5.57306965 71.19729818 -6.5121971 71.75475787 -15.4375 66.3125 C-16.0975 65.6525 -16.7575 64.9925 -17.4375 64.3125 C-19.27598086 62.7818191 -21.12335713 61.26282071 -22.9765625 59.75 C-23.45867187 59.275625 -23.94078125 58.80125 -24.4375 58.3125 C-24.4375 57.6525 -24.4375 56.9925 -24.4375 56.3125 C-25.4275 55.6525 -26.4175 54.9925 -27.4375 54.3125 C-30.10552462 46.75309691 -30.71076704 39.25025699 -30.4375 31.3125 C-30.42074219 30.50554687 -30.40398437 29.69859375 -30.38671875 28.8671875 C-29.95560202 21.00854535 -27.29403559 13.75071162 -21.4375 8.3125 C-20.695 7.4875 -19.9525 6.6625 -19.1875 5.8125 C-13.27352772 0.43616156 -7.67214042 -0.15234592 0 0 Z M-2.4375 16.3125 C-2.7675 16.9725 -3.0975 17.6325 -3.4375 18.3125 C-4.3965625 18.621875 -4.3965625 18.621875 -5.375 18.9375 C-8.48084353 20.67406163 -8.48084353 20.67406163 -9.4375 28.3125 C-2.1775 28.3125 5.0825 28.3125 12.5625 28.3125 C12.5625 26.6625 12.5625 25.0125 12.5625 23.3125 C11.9025 23.3125 11.2425 23.3125 10.5625 23.3125 C10.5625 21.9925 10.5625 20.6725 10.5625 19.3125 C9.9025 19.3125 9.2425 19.3125 8.5625 19.3125 C8.2325 18.6525 7.9025 17.9925 7.5625 17.3125 C4.08924819 16.1547494 1.20182552 16.24383348 -2.4375 16.3125 Z " fill="#010E3C" transform="translate(262.4375,33.6875)"/>
<path d="M0 0 C24.75 0 49.5 0 75 0 C75.495 8.415 75.495 8.415 76 17 C66.76 17 57.52 17 48 17 C48 41.42 48 65.84 48 91 C41.07 90.67 34.14 90.34 27 90 C26.67 65.91 26.34 41.82 26 17 C17.42 17 8.84 17 0 17 C0 11.39 0 5.78 0 0 Z " fill="#010E3D" transform="translate(530,12)"/>
<path d="M0 0 C1.60004883 0.00966797 1.60004883 0.00966797 3.23242188 0.01953125 C4.33521484 0.03628906 5.43800781 0.05304687 6.57421875 0.0703125 C7.69634766 0.07933594 8.81847656 0.08835938 9.97460938 0.09765625 C12.73719784 0.12116764 15.49934807 0.15403095 18.26171875 0.1953125 C18.26171875 0.8553125 18.26171875 1.5153125 18.26171875 2.1953125 C19.25171875 1.8653125 20.24171875 1.5353125 21.26171875 1.1953125 C23.85737353 2.21784317 25.27218551 3.20577926 27.26171875 5.1953125 C28.25171875 5.9378125 29.24171875 6.6803125 30.26171875 7.4453125 C33.35577392 10.01866083 34.4440213 12.18859501 35.26171875 16.1953125 C35.26171875 18.1753125 35.26171875 20.1553125 35.26171875 22.1953125 C28.66171875 22.1953125 22.06171875 22.1953125 15.26171875 22.1953125 C15.26171875 21.2053125 15.26171875 20.2153125 15.26171875 19.1953125 C14.60171875 18.8653125 13.94171875 18.5353125 13.26171875 18.1953125 C12.89046875 17.7003125 12.51921875 17.2053125 12.13671875 16.6953125 C9.14446884 14.30151257 6.03310135 14.50444222 2.26171875 14.1953125 C2.26171875 14.8553125 2.26171875 15.5153125 2.26171875 16.1953125 C1.74609375 16.6284375 1.23046875 17.0615625 0.69921875 17.5078125 C0.22484375 18.0646875 -0.24953125 18.6215625 -0.73828125 19.1953125 C-0.50784261 21.84997299 -0.50784261 21.84997299 0.26171875 24.1953125 C1.91171875 24.5253125 3.56171875 24.8553125 5.26171875 25.1953125 C5.26171875 25.8553125 5.26171875 26.5153125 5.26171875 27.1953125 C6.56109375 27.3190625 7.86046875 27.4428125 9.19921875 27.5703125 C22.87680031 29.12360252 22.87680031 29.12360252 27.26171875 33.1953125 C28.53015625 34.154375 28.53015625 34.154375 29.82421875 35.1328125 C33.46891721 38.21678812 35.10912274 39.84289295 35.66015625 44.7265625 C35.65242188 46.03625 35.6446875 47.3459375 35.63671875 48.6953125 C35.64832031 50.65984375 35.64832031 50.65984375 35.66015625 52.6640625 C35.0426225 58.13710674 32.08350207 60.49295991 28.26171875 64.1953125 C27.80796875 64.7315625 27.35421875 65.2678125 26.88671875 65.8203125 C22.54727841 69.49214663 16.58813101 69.65278868 11.13671875 69.9453125 C10.39260742 69.98551514 9.64849609 70.02571777 8.88183594 70.06713867 C1.43480811 70.37248925 -6.17621185 70.39318511 -12.67578125 66.3828125 C-13.69671875 65.3 -13.69671875 65.3 -14.73828125 64.1953125 C-15.60453125 63.3909375 -16.47078125 62.5865625 -17.36328125 61.7578125 C-22.3808242 56.34414773 -22.75902062 54.02939753 -23.73828125 46.1953125 C-17.13828125 46.1953125 -10.53828125 46.1953125 -3.73828125 46.1953125 C-3.07828125 48.5053125 -2.41828125 50.8153125 -1.73828125 53.1953125 C1.90205464 55.05592862 5.20687976 55.61119342 9.26171875 55.1953125 C11.99946493 54.26785601 11.99946493 54.26785601 14.26171875 53.1953125 C14.07756443 50.25439663 14.07756443 50.25439663 13.26171875 47.1953125 C11.31008757 45.75893552 11.31008757 45.75893552 9.26171875 45.1953125 C9.26171875 44.5353125 9.26171875 43.8753125 9.26171875 43.1953125 C8.08609375 43.0509375 6.91046875 42.9065625 5.69921875 42.7578125 C4.60287109 42.61666016 4.60287109 42.61666016 3.484375 42.47265625 C1.5381578 42.22980665 -0.41238218 42.02212964 -2.36328125 41.8203125 C-6.92959969 40.97469797 -10.43933705 39.4942567 -13.73828125 36.1953125 C-14.37765625 35.9478125 -15.01703125 35.7003125 -15.67578125 35.4453125 C-18.7509473 33.5815755 -19.44683438 31.51617589 -20.73828125 28.1953125 C-22.05048254 22.47039892 -22.54685551 16.20960293 -19.42578125 11.0078125 C-17.57415438 9.01902808 -15.69009666 7.08613368 -13.73828125 5.1953125 C-13.26390625 4.6590625 -12.78953125 4.1228125 -12.30078125 3.5703125 C-8.66014805 0.36655529 -4.69408306 -0.0502041 0 0 Z " fill="#010E3C" transform="translate(322.73828125,33.8046875)"/>
<path d="M0 0 C6.93 0 13.86 0 21 0 C21 30.03 21 60.06 21 91 C14.07 90.67 7.14 90.34 0 90 C0 60.3 0 30.6 0 0 Z " fill="#010E3E" transform="translate(501,12)"/>
<path d="M0 0 C14.85504727 -1.03239711 14.85504727 -1.03239711 19.3125 2.625 C25.73902427 9.00092172 24.39808918 19.08341172 24.56640625 27.41015625 C24.59605469 28.45300781 24.62570313 29.49585938 24.65625 30.5703125 C24.68428711 31.98981201 24.68428711 31.98981201 24.71289062 33.43798828 C25.01036559 36.09249706 25.69228152 37.69899057 27 40 C27.226875 40.721875 27.45375 41.44375 27.6875 42.1875 C28.99662057 44.42413806 28.99662057 44.42413806 32.625 44.75 C33.73875 44.8325 34.8525 44.915 36 45 C36 49.29 36 53.58 36 58 C33.03 58.495 33.03 58.495 30 59 C26.07840231 63.02758682 24.90824511 66.30907279 24.75390625 71.82421875 C24.72103516 72.77103516 24.68816406 73.71785156 24.65429688 74.69335938 C24.59370079 76.66982333 24.53634267 78.64638955 24.48242188 80.62304688 C24.12990167 90.46035607 23.04422717 95.95577283 16 103 C15.505 103.53625 15.01 104.0725 14.5 104.625 C11.71105947 107.18152882 9.67607305 107.95943562 5.875 108.1875 C3 108 3 108 1 107 C0.1875 103.625 0.1875 103.625 0 100 C1.76531567 97.3520265 2.93099579 97.0230014 6 96 C7.15835673 93.02496878 7.15835673 93.02496878 8 90 C8.495 89.505 8.495 89.505 9 89 C9.14481969 87.61898745 9.22704074 86.23127649 9.28125 84.84375 C9.31863281 83.98523438 9.35601562 83.12671875 9.39453125 82.2421875 C9.42933594 81.33726563 9.46414062 80.43234375 9.5 79.5 C9.70572352 74.33405388 9.92925047 69.17116686 10.375 64.01953125 C10.43429688 63.31159424 10.49359375 62.60365723 10.5546875 61.87426758 C11.30695731 58.70805304 13.62647273 57.07683636 16 55 C16.94465774 53.09645986 16.94465774 53.09645986 17 51 C15.65993784 49.17627301 14.10946696 47.79823128 12.4453125 46.26953125 C8.28756076 39.7407373 9.71913703 29.06305775 9.5703125 21.55273438 C9.38834436 16.33252349 8.93705088 12.50299693 6 8 C4.03241727 6.63979849 4.03241727 6.63979849 2 6 C1.34 5.67 0.68 5.34 0 5 C0 3.35 0 1.7 0 0 Z " fill="#010D3B" transform="translate(107,0)"/>
<path d="M0 0 C5.28 0 10.56 0 16 0 C16.495 2.475 16.495 2.475 17 5 C16.030625 5.61875 15.06125 6.2375 14.0625 6.875 C10.97164638 8.65678846 10.97164638 8.65678846 10 11 C9.34 11 8.68 11 8 11 C8.33 11.99 8.66 12.98 9 14 C8.67 14.33 8.34 14.66 8 15 C7.85470197 16.55071944 7.77283161 18.10749016 7.71875 19.6640625 C7.68136719 20.62183594 7.64398437 21.57960938 7.60546875 22.56640625 C7.57066406 23.57574219 7.53585938 24.58507812 7.5 25.625 C6.85145608 44.00041099 6.85145608 44.00041099 3 48 C2.01 48.66 1.02 49.32 0 50 C1.11462882 52.50791484 2.21757549 54.24394828 4.0625 56.3125 C8.38097066 62.30263672 7.11966768 70.85310572 7.0625 77.9375 C7.05798828 79.00291016 7.05347656 80.06832031 7.04882812 81.16601562 C7.03711787 83.77740291 7.02071724 86.38867124 7 89 C7.66 89.33 8.32 89.66 9 90 C8.67 90.66 8.34 91.32 8 92 C8.66 92.33 9.32 92.66 10 93 C10.28875 93.66 10.5775 94.32 10.875 95 C11.24625 95.66 11.6175 96.32 12 97 C12.66 97.165 13.32 97.33 14 97.5 C16 98 16 98 17.3125 99.9375 C17.539375 100.618125 17.76625 101.29875 18 102 C17.67 102.66 17.34 103.32 17 104 C16.34 104 15.68 104 15 104 C14.505 105.98 14.505 105.98 14 108 C8.61802575 108.36695279 8.61802575 108.36695279 6 106.8125 C5.34 106.214375 4.68 105.61625 4 105 C2.515 103.824375 2.515 103.824375 1 102.625 C-4.25392527 98.02781539 -6.43069022 94.92751844 -7 88 C-7.06193783 86.25046836 -7.10763261 84.50031676 -7.140625 82.75 C-7.15996094 81.8115625 -7.17929688 80.873125 -7.19921875 79.90625 C-7.23306925 77.96895996 -7.25130197 76.031334 -7.25390625 74.09375 C-7.39921333 68.52619462 -8.05149619 64.81981617 -11.44433594 60.33984375 C-13.36235432 58.54136577 -13.36235432 58.54136577 -18 57 C-18 53.37 -18 49.74 -18 46 C-16.35 46 -14.7 46 -13 46 C-12.67 45.34 -12.34 44.68 -12 44 C-11.34 43.34 -10.68 42.68 -10 42 C-7.93420865 38.71163453 -7.76017632 36.120258 -7.76171875 32.2734375 C-7.74560547 31.15839844 -7.72949219 30.04335938 -7.71289062 28.89453125 C-7.69613302 26.57166919 -7.69068886 24.24869445 -7.69726562 21.92578125 C-7.5615766 14.30093359 -6.4264886 8.35138318 -2 2 C-1.34 1.67 -0.68 1.34 0 1 C0 0.67 0 0.34 0 0 Z " fill="#010E3C" transform="translate(21,0)"/>
<path d="M0 0 C2.09765625 0.34375 2.09765625 0.34375 4.16015625 1.90625 C5.45727468 5.27875793 5.55314635 7.76489924 5.09765625 11.34375 C3.31758232 13.64301216 2.00080606 14.19837377 -0.84375 14.65625 C-4.09351722 14.84776483 -6.29329041 14.81957292 -8.90234375 12.78125 C-10.27254616 9.44138163 -10.29223505 6.91775356 -9.90234375 3.34375 C-7.14740967 -0.39880196 -4.35939313 -0.17012266 0 0 Z " fill="#010C36" transform="translate(75.90234375,89.65625)"/>
<path d="M0 0 C1.04368744 0.00444122 2.08737488 0.00888245 3.16268921 0.01345825 C4.93429916 0.01368484 4.93429916 0.01368484 6.74169922 0.01391602 C8.02192963 0.02423859 9.30216003 0.03456116 10.6211853 0.04519653 C12.58129044 0.04944138 12.58129044 0.04944138 14.58099365 0.05377197 C18.05644361 0.06141127 21.53172663 0.08106213 25.0071106 0.10317993 C28.55292502 0.12363208 32.0987664 0.13277233 35.6446228 0.14285278 C42.60302475 0.16430787 49.56131576 0.1984473 56.5196228 0.24050903 C56.5196228 0.90050903 56.5196228 1.56050903 56.5196228 2.24050903 C55.45513412 2.25597023 55.45513412 2.25597023 54.36914062 2.27174377 C47.68855247 2.36963091 41.00805305 2.47213274 34.32761574 2.57984829 C30.89295297 2.63506526 27.45828167 2.68848326 24.02352905 2.73782349 C20.07682391 2.7945961 16.13026438 2.85913301 12.1836853 2.92410278 C10.94720245 2.94081528 9.7107196 2.95752777 8.43676758 2.9747467 C7.29573578 2.99469193 6.15470398 3.01463715 4.97909546 3.03518677 C3.97093781 3.05073105 2.96278015 3.06627533 1.92407227 3.08229065 C-0.49304164 3.08537453 -0.49304164 3.08537453 -2.4803772 4.24050903 C-3.1403772 3.58050903 -3.8003772 2.92050903 -4.4803772 2.24050903 C-2.4803772 0.24050903 -2.4803772 0.24050903 0 0 Z " fill="#000B2E" transform="translate(46.480377197265625,4.759490966796875)"/>
<path d="M0 0 C0.33 0 0.66 0 1 0 C1 14.85 1 29.7 1 45 C1.66 45.33 2.32 45.66 3 46 C-0.6678852 47.96189209 -3.87248551 49.39301257 -8 50 C-8.33 48.68 -8.66 47.36 -9 46 C-6.03 46 -3.06 46 0 46 C0 30.82 0 15.64 0 0 Z " fill="#F84443" transform="translate(461,55)"/>
<path d="M0 0 C6.6 0 13.2 0 20 0 C19.34 1.32 18.68 2.64 18 4 C18 3.34 18 2.68 18 2 C12.72 2 7.44 2 2 2 C1.67 2.66 1.34 3.32 1 4 C0.67 2.68 0.34 1.36 0 0 Z " fill="#010C2D" transform="translate(299,80)"/>
<path d="M0 0 C1.32 0.33 2.64 0.66 4 1 C0.37 4.63 -3.26 8.26 -7 12 C-7.99 11.67 -8.98 11.34 -10 11 C-9.34 10.34 -8.68 9.68 -8 9 C-7.071875 7.824375 -7.071875 7.824375 -6.125 6.625 C-2.22608696 1.80869565 -2.22608696 1.80869565 0 0 Z " fill="#A63F3E" transform="translate(390,7)"/>
<path d="M0 0 C5.61 0 11.22 0 17 0 C17 0.33 17 0.66 17 1 C14.91835982 1.36398622 12.83459438 1.71583287 10.75 2.0625 C9.00976562 2.35833984 9.00976562 2.35833984 7.234375 2.66015625 C4.37477376 2.9606216 2.66674071 2.9439206 0 2 C0 1.34 0 0.68 0 0 Z " fill="#CA4645" transform="translate(404,101)"/>
<path d="M0 0 C-3.6678852 1.96189209 -6.87248551 3.39301257 -11 4 C-11.33 2.68 -11.66 1.36 -12 0 C-10.56359829 -0.19573608 -9.12580496 -0.38127816 -7.6875 -0.5625 C-6.88699219 -0.66691406 -6.08648437 -0.77132812 -5.26171875 -0.87890625 C-3 -1 -3 -1 0 0 Z " fill="#802C2B" transform="translate(464,101)"/>
<path d="" fill="#000000" transform="translate(0,0)"/>
<path d="" fill="#000000" transform="translate(0,0)"/>
<path d="" fill="#000000" transform="translate(0,0)"/>
<path d="" fill="#000000" transform="translate(0,0)"/>
<path d="" fill="#000000" transform="translate(0,0)"/>
<path d="" fill="#000000" transform="translate(0,0)"/>
<path d="" fill="#000000" transform="translate(0,0)"/>
<path d="" fill="#000000" transform="translate(0,0)"/>
<path d="" fill="#000000" transform="translate(0,0)"/>
<path d="" fill="#000000" transform="translate(0,0)"/>
<path d="" fill="#000000" transform="translate(0,0)"/>
<path d="" fill="#000000" transform="translate(0,0)"/>
<path d="" fill="#000000" transform="translate(0,0)"/>
<path d="" fill="#000000" transform="translate(0,0)"/>
<path d="" fill="#000000" transform="translate(0,0)"/>
<path d="" fill="#000000" transform="translate(0,0)"/>
<path d="" fill="#000000" transform="translate(0,0)"/>
<path d="" fill="#000000" transform="translate(0,0)"/>
<path d="" fill="#000000" transform="translate(0,0)"/>
<path d="" fill="#000000" transform="translate(0,0)"/>
<path d="" fill="#000000" transform="translate(0,0)"/>
<path d="" fill="#000000" transform="translate(0,0)"/>
<path d="" fill="#000000" transform="translate(0,0)"/>
<path d="" fill="#000000" transform="translate(0,0)"/>
<path d="" fill="#000000" transform="translate(0,0)"/>
<path d="" fill="#000000" transform="translate(0,0)"/>
<path d="" fill="#000000" transform="translate(0,0)"/>
<path d="" fill="#000000" transform="translate(0,0)"/>
<path d="" fill="#000000" transform="translate(0,0)"/>
<path d="" fill="#000000" transform="translate(0,0)"/>
<path d="" fill="#000000" transform="translate(0,0)"/>
<path d="" fill="#000000" transform="translate(0,0)"/>
<path d="" fill="#000000" transform="translate(0,0)"/>
<path d="" fill="#000000" transform="translate(0,0)"/>
<path d="" fill="#000000" transform="translate(0,0)"/>
<path d="" fill="#000000" transform="translate(0,0)"/>
<path d="" fill="#000000" transform="translate(0,0)"/>
<path d="" fill="#000000" transform="translate(0,0)"/>
<path d="" fill="#000000" transform="translate(0,0)"/>
<path d="" fill="#000000" transform="translate(0,0)"/>
<path d="" fill="#000000" transform="translate(0,0)"/>
<path d="" fill="#000000" transform="translate(0,0)"/>
<path d="" fill="#000000" transform="translate(0,0)"/>
<path d="" fill="#000000" transform="translate(0,0)"/>
<path d="" fill="#000000" transform="translate(0,0)"/>
<path d="" fill="#000000" transform="translate(0,0)"/>
<path d="" fill="#000000" transform="translate(0,0)"/>
<path d="" fill="#000000" transform="translate(0,0)"/>
<path d="" fill="#000000" transform="translate(0,0)"/>
<path d="" fill="#000000" transform="translate(0,0)"/>
<path d="" fill="#000000" transform="translate(0,0)"/>
<path d="" fill="#000000" transform="translate(0,0)"/>
<path d="" fill="#000000" transform="translate(0,0)"/>
<path d="" fill="#000000" transform="translate(0,0)"/>
<path d="" fill="#000000" transform="translate(0,0)"/>
<path d="" fill="#000000" transform="translate(0,0)"/>
<path d="" fill="#000000" transform="translate(0,0)"/>
<path d="" fill="#000000" transform="translate(0,0)"/>
<path d="" fill="#000000" transform="translate(0,0)"/>
<path d="" fill="#000000" transform="translate(0,0)"/>
<path d="" fill="#000000" transform="translate(0,0)"/>
<path d="" fill="#000000" transform="translate(0,0)"/>
<path d="" fill="#000000" transform="translate(0,0)"/>
<path d="" fill="#000000" transform="translate(0,0)"/>
<path d="" fill="#000000" transform="translate(0,0)"/>
<path d="" fill="#000000" transform="translate(0,0)"/>
<path d="" fill="#000000" transform="translate(0,0)"/>
<path d="" fill="#000000" transform="translate(0,0)"/>
<path d="" fill="#000000" transform="translate(0,0)"/>
<path d="" fill="#000000" transform="translate(0,0)"/>
<path d="" fill="#000000" transform="translate(0,0)"/>
<path d="" fill="#000000" transform="translate(0,0)"/>
<path d="" fill="#000000" transform="translate(0,0)"/>
<path d="" fill="#000000" transform="translate(0,0)"/>
<path d="" fill="#000000" transform="translate(0,0)"/>
<path d="" fill="#000000" transform="translate(0,0)"/>
<path d="" fill="#000000" transform="translate(0,0)"/>
<path d="" fill="#000000" transform="translate(0,0)"/>
<path d="" fill="#000000" transform="translate(0,0)"/>
<path d="" fill="#000000" transform="translate(0,0)"/>
<path d="" fill="#000000" transform="translate(0,0)"/>
<path d="" fill="#000000" transform="translate(0,0)"/>
<path d="" fill="#000000" transform="translate(0,0)"/>
<path d="" fill="#000000" transform="translate(0,0)"/>
<path d="" fill="#000000" transform="translate(0,0)"/>
<path d="" fill="#000000" transform="translate(0,0)"/>
<path d="" fill="#000000" transform="translate(0,0)"/>
<path d="" fill="#000000" transform="translate(0,0)"/>
<path d="" fill="#000000" transform="translate(0,0)"/>
<path d="" fill="#000000" transform="translate(0,0)"/>
<path d="" fill="#000000" transform="translate(0,0)"/>
<path d="" fill="#000000" transform="translate(0,0)"/>
<path d="" fill="#000000" transform="translate(0,0)"/>
<path d="" fill="#000000" transform="translate(0,0)"/>
<path d="" fill="#000000" transform="translate(0,0)"/>
<path d="" fill="#000000" transform="translate(0,0)"/>
<path d="" fill="#000000" transform="translate(0,0)"/>
<path d="" fill="#000000" transform="translate(0,0)"/>
<path d="" fill="#000000" transform="translate(0,0)"/>
<path d="" fill="#000000" transform="translate(0,0)"/>
<path d="" fill="#000000" transform="translate(0,0)"/>
<path d="" fill="#000000" transform="translate(0,0)"/>
<path d="" fill="#000000" transform="translate(0,0)"/>
<path d="" fill="#000000" transform="translate(0,0)"/>
<path d="" fill="#000000" transform="translate(0,0)"/>
<path d="" fill="#000000" transform="translate(0,0)"/>
<path d="" fill="#000000" transform="translate(0,0)"/>
<path d="" fill="#000000" transform="translate(0,0)"/>
<path d="" fill="#000000" transform="translate(0,0)"/>
<path d="" fill="#000000" transform="translate(0,0)"/>
<path d="" fill="#000000" transform="translate(0,0)"/>
<path d="" fill="#000000" transform="translate(0,0)"/>
<path d="" fill="#000000" transform="translate(0,0)"/>
<path d="" fill="#000000" transform="translate(0,0)"/>
<path d="" fill="#000000" transform="translate(0,0)"/>
<path d="" fill="#000000" transform="translate(0,0)"/>
</svg>
